<?xml version="1.0" encoding="utf-8"?>
<!-- Generator: Adobe Illustrator 13.0.0, SVG Export Plug-In . SVG Version: 6.00 Build 14948)  -->
<!DOCTYPE svg PUBLIC "-//W3C//DTD SVG 1.1//EN" "http://www.w3.org/Graphics/SVG/1.1/DTD/svg11.dtd">
<svg version="1.1" id="Behance" xmlns="http://www.w3.org/2000/svg" xmlns:xlink="http://www.w3.org/1999/xlink" x="0px" y="0px"
	 width="1000px" height="1000px" viewBox="0 0 1000 1000" enable-background="new 0 0 1000 1000" xml:space="preserve">
<circle id="behance-back" fill="#FFFFFF" cx="500" cy="500" r="500"/>
<path id="behance-behance" fill="#111111" d="M379.475,519.295h-89.604v94.551h88.204c30.318,0,54.336-9.659,54.336-45.395
	C432.411,533.401,412.178,519.295,379.475,519.295z M367.966,381.676h-78.095v80.437h83.962c26.6,0,46.593-11.989,46.593-40.908
	C420.426,388.26,395.244,381.676,367.966,381.676z M510.971,569.854c0,69.886-59.985,99.747-122.551,99.747H220.001V323.57h163.498
	c66.066,0,111,23.3,111,87.506c0,33.645-17.15,57.159-47.256,71.73C489.556,494.815,510.971,527.062,510.971,569.854z
	 M593.308,346.87h139.236v46.334H593.308V346.87z M655.632,465.416c-43.755,0-56.465,24.476-57.396,43.511h112.441
	C704.33,474.361,689.285,465.416,655.632,465.416z M598.236,553.879c1.877,43.273,23.285,71.029,61.645,71.029
	c27.741,0,53.155-22.598,57.641-38.102h60.677c-19.287,58.823-63.767,89.623-120.682,89.623c-79.254,0-129.15-53.887-129.15-131.035
	c0-74.577,52.917-131.5,129.15-131.5c85.647,0,127.029,63.29,122.086,139.984H598.236z"/>
</svg>
