<?xml version="1.0" encoding="utf-8"?>
<!-- Generator: Adobe Illustrator 13.0.0, SVG Export Plug-In . SVG Version: 6.00 Build 14948)  -->
<!DOCTYPE svg PUBLIC "-//W3C//DTD SVG 1.1//EN" "http://www.w3.org/Graphics/SVG/1.1/DTD/svg11.dtd">
<svg version="1.1" id="Dribbble" xmlns="http://www.w3.org/2000/svg" xmlns:xlink="http://www.w3.org/1999/xlink" x="0px" y="0px"
	 width="1000px" height="1000px" viewBox="0 0 1000 1000" enable-background="new 0 0 1000 1000" xml:space="preserve">
<circle id="dribbble-back" fill="#FFFFFF" cx="500" cy="500" r="500"/>
<path id="dribbble-dribble" fill="#111111" d="M632.08,692.932c-9.59-56.213-25.192-109.634-44.098-159.332
	c40.816-5.119,87.975-3.982,142.578,6.081C719.581,603.119,683.182,657.715,632.08,692.932z M358.123,685.715
	c39.46-59.494,94.54-118.294,183.877-143.021c21.004,53.644,38.018,112,47.165,173.607c-27.52,11.2-57.663,17.494-89.165,17.494
	C446.583,733.795,397.365,715.82,358.123,685.715z M266.201,500v-7.48h1.4c83.302,0,166.165-5.6,240.319-27.302
	c5.386,11.199,11.023,22.64,16.098,34.542c-97.516,28.721-158.417,92.861-199.937,153.98C287.903,612.701,266.201,558.8,266.201,500
	z M399.422,288.819c23.8,31.741,55.561,77.941,86.578,134.399c-65.803,17.982-139.298,22.881-213.497,23.105
	C288.864,376.797,336.464,319.16,399.422,288.819z M651.459,321.96c-32.898,40.139-74.196,67.654-121.14,86.339
	c-29.835-55.539-60.898-101.739-85.354-135.579c17.719-4.196,36.137-6.52,55.034-6.52
	C557.885,266.201,610.604,287.201,651.459,321.96z M683.662,355.56c30.098,38.258,48.516,85.858,50.141,137.898
	c-62.996-10.96-117.119-11.44-163.803-3.96c-6.035-13.538-12.115-26.863-18.418-39.677
	C601.715,429.299,646.79,399.201,683.662,355.56z M500,220.001c-154.697,0-279.999,125.297-279.999,279.999
	c0,154.693,125.301,279.998,279.999,279.998c154.701,0,279.998-125.305,279.998-279.998
	C779.998,345.298,654.701,220.001,500,220.001z"/>
</svg>
