<?xml version="1.0" encoding="utf-8"?>
<!-- Generator: Adobe Illustrator 13.0.0, SVG Export Plug-In . SVG Version: 6.00 Build 14948)  -->
<!DOCTYPE svg PUBLIC "-//W3C//DTD SVG 1.1//EN" "http://www.w3.org/Graphics/SVG/1.1/DTD/svg11.dtd">
<svg version="1.1" id="Facebook" xmlns="http://www.w3.org/2000/svg" xmlns:xlink="http://www.w3.org/1999/xlink" x="0px" y="0px"
	 width="1000px" height="1000px" viewBox="0 0 1000 1000" enable-background="new 0 0 1000 1000" xml:space="preserve">
<circle id="facebook-back" fill="#FFFFFF" cx="500" cy="500" r="500"/>
<path id="facebook-facebook" fill="#111111" d="M743.256,226.563H256.749c-16.674,0-30.186,13.508-30.186,30.186v486.507
	c0,16.67,13.512,30.182,30.186,30.182h261.914V561.661h-71.267v-82.539h71.267v-60.863c0-70.637,43.144-109.1,106.162-109.1
	c30.174,0,56.115,2.247,63.675,3.254v73.818l-43.692,0.019c-34.279,0-40.91,16.285-40.91,40.181v52.692h81.727l-10.643,82.539
	h-71.084v211.776h139.359c16.67,0,30.182-13.512,30.182-30.182V256.749C773.438,240.07,759.926,226.563,743.256,226.563z"/>
</svg>
