<?xml version="1.0" encoding="utf-8"?>
<!-- Generator: Adobe Illustrator 13.0.0, SVG Export Plug-In . SVG Version: 6.00 Build 14948)  -->
<!DOCTYPE svg PUBLIC "-//W3C//DTD SVG 1.1//EN" "http://www.w3.org/Graphics/SVG/1.1/DTD/svg11.dtd">
<svg version="1.1" id="Github" xmlns="http://www.w3.org/2000/svg" xmlns:xlink="http://www.w3.org/1999/xlink" x="0px" y="0px"
	 width="1000px" height="1000px" viewBox="0 0 1000 1000" enable-background="new 0 0 1000 1000" xml:space="preserve">
<circle id="github-back" fill="#FFFFFF" cx="500" cy="500" r="500"/>
<g id="github-github">
	<path fill="#111111" d="M500,226.913c-154.617,0-279.999,125.351-279.999,279.999c0,123.711,80.23,228.668,191.482,265.694
		c13.992,2.586,19.135-6.081,19.135-13.475c0-6.675-0.26-28.731-0.382-52.131c-77.896,16.938-94.337-33.035-94.337-33.035
		c-12.733-32.364-31.09-40.978-31.09-40.978c-25.406-17.373,1.918-17.014,1.918-17.014c28.111,1.977,42.919,28.869,42.919,28.869
		c24.972,42.794,65.506,30.419,81.482,23.263c2.517-18.097,9.772-30.449,17.776-37.445
		c-62.188-7.073-127.571-31.082-127.571-138.374c0-30.567,10.94-55.551,28.854-75.153c-2.907-7.058-12.497-35.535,2.716-74.105
		c0,0,23.507-7.519,77.011,28.706c22.34-6.202,46.296-9.315,70.084-9.422c23.796,0.106,47.768,3.22,70.145,9.422
		c53.443-36.224,76.928-28.706,76.928-28.706c15.235,38.57,5.652,67.047,2.746,74.105c17.952,19.603,28.816,44.586,28.816,75.153
		c0,107.551-65.506,131.218-127.854,138.16c10.041,8.683,18.982,25.727,18.982,51.85c0,37.46-0.313,67.611-0.313,76.835
		c0,7.454,5.044,16.183,19.241,13.437c111.184-37.064,191.314-141.984,191.314-265.656C780.006,352.264,654.64,226.913,500,226.913z
		"/>
	<path fill="#111111" d="M326.058,628.929c-0.618,1.396-2.808,1.809-4.807,0.862c-2.029-0.915-3.17-2.815-2.511-4.211
		c0.604-1.435,2.793-1.832,4.822-0.87C325.6,625.626,326.756,627.533,326.058,628.929L326.058,628.929z"/>
	<path fill="#111111" d="M337.395,641.586c-1.335,1.236-3.944,0.656-5.714-1.297c-1.839-1.953-2.179-4.563-0.824-5.829
		c1.381-1.22,3.906-0.648,5.745,1.305C338.432,637.741,338.791,640.327,337.395,641.586L337.395,641.586z"/>
	<path fill="#111111" d="M348.435,657.707c-1.717,1.197-4.524,0.068-6.257-2.418c-1.716-2.487-1.716-5.479,0.039-6.676
		c1.739-1.19,4.501-0.115,6.26,2.357C350.189,653.496,350.189,656.486,348.435,657.707L348.435,657.707z"/>
	<path fill="#111111" d="M363.56,673.279c-1.537,1.701-4.803,1.243-7.198-1.068c-2.449-2.251-3.128-5.463-1.594-7.156
		c1.563-1.693,4.852-1.213,7.255,1.083C364.456,668.389,365.196,671.615,363.56,673.279L363.56,673.279z"/>
	<path fill="#111111" d="M384.423,682.335c-0.68,2.189-3.823,3.182-6.997,2.251c-3.166-0.962-5.233-3.525-4.6-5.737
		c0.656-2.213,3.821-3.243,7.019-2.251C383.011,677.552,385.078,680.1,384.423,682.335L384.423,682.335z"/>
	<path fill="#111111" d="M407.341,684.006c0.076,2.312-2.608,4.227-5.939,4.272c-3.345,0.076-6.062-1.801-6.092-4.074
		c0-2.327,2.624-4.219,5.974-4.28C404.609,679.863,407.341,681.717,407.341,684.006L407.341,684.006z"/>
	<path fill="#111111" d="M428.665,680.382c0.396,2.251-1.915,4.569-5.218,5.181c-3.258,0.595-6.265-0.794-6.676-3.029
		c-0.405-2.312,1.953-4.623,5.191-5.227C425.277,676.742,428.245,678.093,428.665,680.382L428.665,680.382z"/>
</g>
</svg>
