<?xml version="1.0" encoding="utf-8"?>
<!-- Generator: Adobe Illustrator 13.0.0, SVG Export Plug-In . SVG Version: 6.00 Build 14948)  -->
<!DOCTYPE svg PUBLIC "-//W3C//DTD SVG 1.1//EN" "http://www.w3.org/Graphics/SVG/1.1/DTD/svg11.dtd">
<svg version="1.1" id="Google_x2B_" xmlns="http://www.w3.org/2000/svg" xmlns:xlink="http://www.w3.org/1999/xlink" x="0px"
	 y="0px" width="1000px" height="1000px" viewBox="0 0 1000 1000" enable-background="new 0 0 1000 1000" xml:space="preserve">
<circle id="google--back" fill="#FFFFFF" cx="500" cy="500" r="500"/>
<g id="google--google-">
	<g>
		<path fill="#111111" d="M220.108,500.229c-3.494-91.739,76.874-176.514,168.702-177.62c46.813-3.994,92.33,14.176,127.776,43.839
			c-14.525,15.957-29.342,31.761-45.104,46.55c-31.208-18.947-68.741-33.382-105.179-20.565
			c-58.808,16.739-94.364,86.14-72.647,143.654c18.021,60.044,91.095,92.995,148.331,67.765
			c29.663-10.605,49.179-37.964,57.754-67.353c-33.98-0.679-67.962-0.259-101.947-1.205c-0.057-20.218-0.164-40.333-0.057-60.551
			c56.655-0.085,113.402-0.248,170.15,0.271c3.463,49.508-3.83,102.523-36.011,142.266
			c-44.099,56.747-125.565,73.395-191.822,51.147C269.699,645.332,218.582,574.479,220.108,500.229"/>
		<path fill="#111111" d="M678.314,423.779h50.537c0.092,16.91,0.244,33.886,0.335,50.796c16.907,0.168,33.905,0.236,50.812,0.347
			v50.621c-16.906,0.076-33.904,0.168-50.812,0.244c-0.152,16.983-0.243,33.897-0.335,50.889c-16.907-0.076-33.814,0-50.645,0
			c-0.167-16.991-0.167-33.905-0.32-50.797c-16.906-0.168-33.912-0.26-50.781-0.336v-50.621c16.869-0.11,33.783-0.179,50.781-0.347
			C677.979,457.665,678.146,440.689,678.314,423.779"/>
	</g>
</g>
</svg>
