<?xml version="1.0" encoding="utf-8"?>
<!-- Generator: Adobe Illustrator 13.0.0, SVG Export Plug-In . SVG Version: 6.00 Build 14948)  -->
<!DOCTYPE svg PUBLIC "-//W3C//DTD SVG 1.1//EN" "http://www.w3.org/Graphics/SVG/1.1/DTD/svg11.dtd">
<svg version="1.1" id="Instagram" xmlns="http://www.w3.org/2000/svg" xmlns:xlink="http://www.w3.org/1999/xlink" x="0px" y="0px"
	 width="1000px" height="1000px" viewBox="0 0 1000 1000" enable-background="new 0 0 1000 1000" xml:space="preserve">
<circle id="instagram-back" fill="#FFFFFF" cx="500" cy="500" r="500"/>
<path id="instagram-instagram" fill="#111111" d="M715.4,456.897h-48.751c3.548,13.79,5.653,28.194,5.653,43.091
	c0,95.181-77.148,172.314-172.307,172.314c-95.154,0-172.299-77.134-172.299-172.314c0-14.896,2.105-29.301,5.661-43.091h-48.755
	V693.84c0,11.879,9.648,21.522,21.561,21.522h387.668c11.917,0,21.568-9.644,21.568-21.522V456.897L715.4,456.897z M715.4,306.141
	c0-11.89-9.651-21.538-21.568-21.538h-64.598c-11.895,0-21.537,9.648-21.537,21.538v64.625c0,11.891,9.643,21.538,21.537,21.538
	h64.598c11.917,0,21.568-9.647,21.568-21.538V306.141L715.4,306.141z M499.996,392.303c-59.479,0-107.693,48.207-107.693,107.685
	c0,59.475,48.215,107.709,107.693,107.709c59.482,0,107.701-48.234,107.701-107.709C607.697,440.51,559.479,392.303,499.996,392.303
	 M715.4,779.998H284.603c-35.675,0-64.602-28.938-64.602-64.636V284.603c0-35.679,28.927-64.602,64.602-64.602H715.4
	c35.684,0,64.598,28.923,64.598,64.602v430.759C779.998,751.061,751.084,779.998,715.4,779.998"/>
</svg>
