<?xml version="1.0" encoding="utf-8"?>
<!-- Generator: Adobe Illustrator 13.0.0, SVG Export Plug-In . SVG Version: 6.00 Build 14948)  -->
<!DOCTYPE svg PUBLIC "-//W3C//DTD SVG 1.1//EN" "http://www.w3.org/Graphics/SVG/1.1/DTD/svg11.dtd">
<svg version="1.1" id="Linkedin" xmlns="http://www.w3.org/2000/svg" xmlns:xlink="http://www.w3.org/1999/xlink" x="0px" y="0px"
	 width="1000px" height="1000px" viewBox="0 0 1000 1000" enable-background="new 0 0 1000 1000" xml:space="preserve">
<circle id="linkedin-back" fill="#FFFFFF" cx="500" cy="500" r="500"/>
<g id="linkedin-linkedin">
	<path fill="#111111" d="M227.15,404.274h116.161v373.382H227.15V404.274z M285.263,218.667c37.121,0,67.253,30.151,67.253,67.294
		c0,37.151-30.133,67.299-67.253,67.299c-37.27,0-67.322-30.148-67.322-67.299C217.941,248.817,247.994,218.667,285.263,218.667"/>
	<path fill="#111111" d="M416.111,404.274h111.232v51.044h1.595c15.473-29.354,53.337-60.311,109.794-60.311
		c117.493,0,139.207,77.313,139.207,177.868v204.78H661.911V596.077c0-43.297-0.748-98.999-60.303-98.999
		c-60.38,0-69.595,47.188-69.595,95.901v184.677H416.111V404.274z"/>
</g>
</svg>
