<?xml version="1.0" encoding="utf-8"?>
<!-- Generator: Adobe Illustrator 13.0.0, SVG Export Plug-In . SVG Version: 6.00 Build 14948)  -->
<!DOCTYPE svg PUBLIC "-//W3C//DTD SVG 1.1//EN" "http://www.w3.org/Graphics/SVG/1.1/DTD/svg11.dtd">
<svg version="1.1" id="Pinterest" xmlns="http://www.w3.org/2000/svg" xmlns:xlink="http://www.w3.org/1999/xlink" x="0px" y="0px"
	 width="1000px" height="1000px" viewBox="0 0 1000 1000" enable-background="new 0 0 1000 1000" xml:space="preserve">
<circle id="pinterest-back" fill="#FFFFFF" cx="500" cy="500" r="500"/>
<path id="pinterest-pinterest" fill="#111111" d="M716.759,404.259c0,126.213-70.114,220.466-173.554,220.466
	c-34.729,0-67.383-18.783-78.594-40.114c0,0-18.673,74.149-22.617,88.439c-13.905,50.507-54.883,101.089-58.053,105.271
	c-2.22,2.854-7.145,1.953-7.652-1.831c-0.896-6.447-11.33-70.236,0.977-122.269c6.173-26.093,41.367-175.27,41.367-175.27
	s-10.277-20.551-10.277-50.904c0-47.676,27.661-83.259,62.035-83.259c29.259,0,43.403,21.95,43.403,48.279
	c0,29.435-18.715,73.418-28.4,114.158c-8.087,34.142,17.108,61.959,50.777,61.959c60.929,0,101.944-78.285,101.944-171.021
	c0-70.487-47.447-123.278-133.816-123.278c-97.542,0-158.363,72.772-158.363,154.063c0,28.008,8.281,47.791,21.214,63.064
	c5.939,7.034,6.798,9.865,4.643,17.952c-1.595,5.937-5.07,20.157-6.596,25.818c-2.109,8.125-8.709,11.055-16.094,8.049
	c-44.922-18.364-65.857-67.581-65.857-122.891c0-91.389,77.068-200.939,229.87-200.939
	C635.979,220.001,716.759,308.849,716.759,404.259z"/>
</svg>
