<?xml version="1.0" encoding="utf-8"?>
<!-- Generator: Adobe Illustrator 13.0.0, SVG Export Plug-In . SVG Version: 6.00 Build 14948)  -->
<!DOCTYPE svg PUBLIC "-//W3C//DTD SVG 1.1//EN" "http://www.w3.org/Graphics/SVG/1.1/DTD/svg11.dtd">
<svg version="1.1" id="Snapchat" xmlns="http://www.w3.org/2000/svg" xmlns:xlink="http://www.w3.org/1999/xlink" x="0px" y="0px"
	 width="1000px" height="1000px" viewBox="0 0 1000 1000" enable-background="new 0 0 1000 1000" xml:space="preserve">
<circle id="snapchat-back" fill="#FFFFFF" cx="500" cy="500" r="500"/>
<g id="snapchat-snapchat">
	<path fill="#111111" d="M503.464,757.362c-1.411,0-2.8-0.038-4.188-0.099l0,0c-0.886,0.061-1.809,0.099-2.739,0.099
		c-32.486,0-53.337-14.739-73.502-28.992c-13.923-9.841-27.061-19.126-42.541-21.705c-7.554-1.251-15.076-1.893-22.339-1.893
		c-13.096,0-23.422,2.03-30.96,3.503c-4.578,0.899-8.529,1.663-11.536,1.663c-3.136,0-6.542-0.672-8.019-5.723
		c-1.281-4.379-2.212-8.613-3.108-12.71c-2.301-10.552-3.933-17.037-8.358-17.716c-51.522-7.95-66.27-18.814-69.558-26.505
		c-0.465-1.113-0.732-2.213-0.793-3.311c-0.168-2.953,1.93-5.563,4.852-6.043c79.208-13.046,114.73-94.002,116.203-97.435
		c0.038-0.1,0.084-0.19,0.122-0.282c4.853-9.827,5.799-18.356,2.838-25.346c-5.439-12.809-23.17-18.443-34.904-22.159
		c-2.869-0.911-5.592-1.774-7.736-2.621c-23.422-9.254-25.372-18.76-24.448-23.598c1.568-8.255,12.6-14.007,21.519-14.007
		c2.441,0,4.604,0.435,6.409,1.281c10.536,4.933,20.027,7.432,28.225,7.432c11.311,0,16.255-4.754,16.857-5.379
		c-0.29-5.359-0.641-10.96-1.007-16.739c-2.369-37.448-5.288-83.977,6.561-110.539c35.504-79.62,110.81-85.804,133.041-85.804
		c0.573,0,9.751-0.099,9.751-0.099l1.313-0.004c22.285,0,97.748,6.195,133.277,85.857c11.856,26.573,8.919,73.147,6.562,110.569
		l-0.099,1.625c-0.328,5.211-0.648,10.273-0.908,15.125c0.564,0.576,5.104,4.951,15.373,5.34h0.008
		c7.79-0.297,16.762-2.78,26.596-7.385c2.885-1.346,6.088-1.633,8.263-1.633c3.326,0,6.706,0.646,9.506,1.813l0.168,0.072
		c7.958,2.819,13.169,8.393,13.283,14.222c0.1,5.485-4.089,13.74-24.643,21.85c-2.121,0.84-4.845,1.698-7.729,2.621
		c-11.742,3.716-29.465,9.351-34.896,22.159c-2.977,6.989-2.022,15.512,2.822,25.338c0.045,0.092,0.092,0.183,0.138,0.29
		c1.465,3.433,36.956,84.365,116.203,97.427c2.922,0.48,5.013,3.09,4.853,6.051c-0.069,1.113-0.328,2.228-0.816,3.311
		c-3.266,7.646-17.998,18.486-69.543,26.451c-4.211,0.648-5.844,6.127-8.354,17.64c-0.916,4.188-1.846,8.301-3.113,12.626
		c-1.099,3.754-3.44,5.509-7.377,5.509h-0.641c-2.731,0-6.615-0.488-11.536-1.45c-8.721-1.708-18.509-3.288-30.952-3.288
		c-7.271,0-14.794,0.642-22.354,1.893c-15.465,2.579-28.595,11.849-42.488,21.675C556.816,742.623,535.965,757.362,503.464,757.362z
		"/>
</g>
</svg>
