<?xml version="1.0" encoding="utf-8"?>
<!-- Generator: Adobe Illustrator 13.0.0, SVG Export Plug-In . SVG Version: 6.00 Build 14948)  -->
<!DOCTYPE svg PUBLIC "-//W3C//DTD SVG 1.1//EN" "http://www.w3.org/Graphics/SVG/1.1/DTD/svg11.dtd">
<svg version="1.1" id="Twitter" xmlns="http://www.w3.org/2000/svg" xmlns:xlink="http://www.w3.org/1999/xlink" x="0px" y="0px"
	 width="1000px" height="1000px" viewBox="0 0 1000 1000" enable-background="new 0 0 1000 1000" xml:space="preserve">
<circle id="twitter-back" fill="#FFFFFF" cx="500" cy="500" r="500"/>
<path id="twitter-twitter" fill="#111111" d="M779.998,326.324c-20.599,9.141-42.739,15.313-65.985,18.09
	c23.712-14.222,41.938-36.736,50.514-63.565c-22.193,13.165-46.783,22.732-72.952,27.882
	c-20.958-22.332-50.819-36.278-83.862-36.278c-63.461,0-114.895,51.438-114.895,114.884c0,9.01,1.018,17.776,2.975,26.185
	c-95.485-4.792-180.142-50.53-236.805-120.038c-9.891,16.964-15.556,36.702-15.556,57.759c0,39.855,20.283,75.02,51.109,95.623
	c-18.833-0.592-36.549-5.765-52.037-14.37c-0.011,0.48-0.011,0.961-0.011,1.449c0,55.664,39.604,102.097,92.162,112.655
	c-9.643,2.625-19.794,4.029-30.27,4.029c-7.404,0-14.602-0.725-21.618-2.061c14.622,45.64,57.049,78.857,107.327,79.781
	c-39.322,30.822-88.859,49.187-142.692,49.187c-9.273,0-18.414-0.542-27.401-1.603c50.846,32.601,111.232,51.613,176.117,51.613
	c211.326,0,326.889-175.064,326.889-326.889c0-4.982-0.114-9.934-0.335-14.863C745.117,369.599,764.603,349.366,779.998,326.324z"/>
</svg>
