<?xml version="1.0" encoding="utf-8"?>
<!-- Generator: Adobe Illustrator 13.0.0, SVG Export Plug-In . SVG Version: 6.00 Build 14948)  -->
<!DOCTYPE svg PUBLIC "-//W3C//DTD SVG 1.1//EN" "http://www.w3.org/Graphics/SVG/1.1/DTD/svg11.dtd">
<svg version="1.1" id="WhatsApp" xmlns="http://www.w3.org/2000/svg" xmlns:xlink="http://www.w3.org/1999/xlink" x="0px" y="0px"
	 width="1000px" height="1000px" viewBox="0 0 1000 1000" enable-background="new 0 0 1000 1000" xml:space="preserve">
<circle id="whatsapp-back" fill="#FFFFFF" cx="500" cy="500" r="500"/>
<g id="whatsapp-whatsapp">
	<path fill="#111111" d="M220.001,781.35l39.558-144.493c-24.406-42.282-37.239-90.249-37.224-139.386
		c0.061-153.743,125.145-278.82,278.831-278.82c74.593,0.03,144.601,29.068,197.243,81.78
		c52.643,52.696,81.619,122.749,81.588,197.258c-0.061,153.731-125.152,278.824-278.823,278.824c0,0,0.008,0,0,0h-0.122
		c-46.661-0.016-92.518-11.727-133.239-33.944L220.001,781.35z M374.657,692.093l8.468,5.021
		c35.576,21.118,76.37,32.287,117.951,32.318h0.099c127.731,0,231.697-103.974,231.751-231.766
		c0.022-61.921-24.063-120.148-67.826-163.957c-43.746-43.8-101.936-67.939-163.833-67.962
		c-127.839,0-231.804,103.958-231.849,231.735c-0.023,43.785,12.233,86.441,35.43,123.329l5.509,8.773l-23.407,85.519
		L374.657,692.093z"/>
	<path fill="#111111" d="M641.647,563.987c-1.747-2.906-6.386-4.646-13.352-8.147c-6.974-3.479-41.222-20.333-47.607-22.659
		c-6.386-2.319-11.032-3.487-15.687,3.486c-4.638,6.98-17.989,22.675-22.049,27.32c-4.066,4.647-8.133,5.234-15.099,1.755
		c-6.966-3.494-29.407-10.856-56.022-34.592c-20.713-18.471-34.698-41.29-38.757-48.263c-4.066-6.974-0.436-10.746,3.052-14.214
		c3.136-3.132,6.965-8.141,10.452-12.207c3.479-4.066,4.639-6.98,6.966-11.627c2.319-4.646,1.159-8.721-0.58-12.207
		c-1.747-3.486-15.678-37.781-21.484-51.728c-5.653-13.58-11.398-11.742-15.671-11.963c-4.059-0.203-8.713-0.244-13.358-0.244
		c-4.64,0-12.192,1.747-18.578,8.717c-6.386,6.977-24.384,23.83-24.384,58.124c0,34.295,24.964,67.425,28.45,72.067
		c3.479,4.653,49.125,75.027,119.019,105.202c16.617,7.179,29.595,11.467,39.719,14.679c16.686,5.303,31.876,4.555,43.876,2.762
		c13.391-2.007,41.223-16.854,47.028-33.127C643.387,580.842,643.387,566.895,641.647,563.987z"/>
</g>
</svg>
